<svg width="24" height="16" viewBox="0 0 24 16" fill="none" xmlns="http://www.w3.org/2000/svg">
<path d="M22.2286 7.09375H6.51601C6.01689 7.09375 5.6123 7.49834 5.6123 7.99745C5.6123 8.49657 6.01689 8.90115 6.51601 8.90115H22.2286C22.7277 8.90115 23.1323 8.49657 23.1323 7.99745C23.1323 7.49834 22.7277 7.09375 22.2286 7.09375Z" fill="#546376"/>
<path d="M22.2286 0.316406H6.51601C6.01689 0.316406 5.6123 0.720994 5.6123 1.22011C5.6123 1.71922 6.01689 2.12381 6.51601 2.12381H22.2286C22.7277 2.12381 23.1323 1.71922 23.1323 1.22011C23.1323 0.720994 22.7277 0.316406 22.2286 0.316406Z" fill="#546376"/>
<path d="M22.2288 13.8712H6.51625C6.01714 13.8712 5.61255 14.2757 5.61255 14.7749C5.61255 15.274 6.01714 15.6786 6.51625 15.6786H22.2288C22.7279 15.6786 23.1325 15.274 23.1325 14.7749C23.1325 14.2757 22.7279 13.8712 22.2288 13.8712Z" fill="#546376"/>
<path d="M1.22 2.44C1.89378 2.44 2.44 1.89378 2.44 1.22C2.44 0.546212 1.89378 0 1.22 0C0.546212 0 0 0.546212 0 1.22C0 1.89378 0.546212 2.44 1.22 2.44Z" fill="#546376"/>
<path d="M1.22 9.21404C1.89378 9.21404 2.44 8.66783 2.44 7.99405C2.44 7.32026 1.89378 6.77405 1.22 6.77405C0.546212 6.77405 0 7.32026 0 7.99405C0 8.66783 0.546212 9.21404 1.22 9.21404Z" fill="#546376"/>
<path d="M1.22 15.9988C1.89378 15.9988 2.44 15.4526 2.44 14.7788C2.44 14.105 1.89378 13.5588 1.22 13.5588C0.546212 13.5588 0 14.105 0 14.7788C0 15.4526 0.546212 15.9988 1.22 15.9988Z" fill="#546376"/>
</svg>
