<svg width="22" height="26" viewBox="0 0 22 26" fill="none" xmlns="http://www.w3.org/2000/svg">
<path d="M16 11C16 9.4087 15.3679 7.88258 14.2426 6.75736C13.1174 5.63214 11.5913 5 10 5C8.4087 5 6.88258 5.63214 5.75736 6.75736C4.63214 7.88258 4 9.4087 4 11C4 18 1 20 1 20H19C19 20 16 18 16 11Z" stroke="white" stroke-width="2" stroke-linecap="round" stroke-linejoin="round"/>
<path d="M11.73 24C11.5542 24.3031 11.3019 24.5547 10.9982 24.7295C10.6946 24.9044 10.3504 24.9965 10 24.9965C9.64964 24.9965 9.30541 24.9044 9.00179 24.7295C8.69818 24.5547 8.44583 24.3031 8.27002 24" stroke="white" stroke-width="2" stroke-linecap="round" stroke-linejoin="round"/>
<circle cx="15" cy="7" r="6.5" fill="#FF2264" stroke="white"/>
<path d="M13.4912 10.06C13.5578 10.44 13.7112 10.7333 13.9512 10.94C14.1978 11.1467 14.5278 11.25 14.9412 11.25C15.4945 11.25 15.9012 11.0333 16.1612 10.6C16.4278 10.1667 16.5545 9.43667 16.5412 8.41C16.4012 8.71 16.1678 8.94667 15.8412 9.12C15.5145 9.28667 15.1512 9.37 14.7512 9.37C14.3045 9.37 13.9045 9.28 13.5512 9.1C13.2045 8.91333 12.9312 8.64333 12.7312 8.29C12.5312 7.93667 12.4312 7.51 12.4312 7.01C12.4312 6.29667 12.6378 5.72333 13.0512 5.29C13.4645 4.85 14.0512 4.63 14.8112 4.63C15.7445 4.63 16.3978 4.93333 16.7712 5.54C17.1512 6.14667 17.3412 7.05 17.3412 8.25C17.3412 9.09 17.2645 9.78333 17.1112 10.33C16.9645 10.8767 16.7112 11.2933 16.3512 11.58C15.9978 11.8667 15.5112 12.01 14.8912 12.01C14.2112 12.01 13.6812 11.8267 13.3012 11.46C12.9212 11.0933 12.7045 10.6267 12.6512 10.06H13.4912ZM14.9012 8.6C15.3478 8.6 15.7145 8.46333 16.0012 8.19C16.2878 7.91 16.4312 7.53333 16.4312 7.06C16.4312 6.56 16.2912 6.15667 16.0112 5.85C15.7312 5.54333 15.3378 5.39 14.8312 5.39C14.3645 5.39 13.9912 5.53667 13.7112 5.83C13.4378 6.12333 13.3012 6.51 13.3012 6.99C13.3012 7.47667 13.4378 7.86667 13.7112 8.16C13.9845 8.45333 14.3812 8.6 14.9012 8.6Z" fill="white"/>
</svg>
