<svg width="18" height="16" viewBox="0 0 18 16" fill="none" xmlns="http://www.w3.org/2000/svg">
<mask id="path-1-inside-1" fill="white">
<path d="M2.16634 0H15.1663C16.3609 0 17.333 0.978909 17.333 2.18182V13.8182C17.333 15.0211 16.3609 16 15.1663 16H2.16634C0.971785 16 -0.000326157 15.0211 -0.000326157 13.8182V2.18182C-0.000326157 0.978909 0.971785 0 2.16634 0ZM11.9163 5.09091H9.38856V7.27273H11.9163V5.09091ZM13.3608 7.27273H15.8886V5.09091H13.3608V7.27273ZM7.94412 5.09091H5.41634V7.27273H7.94412V5.09091ZM3.9719 5.09091H1.44412V7.27273H3.9719V5.09091ZM15.8886 8.72727H13.3608V10.9091H15.8886V8.72727ZM11.9163 8.72727H9.38856V10.9091H11.9163V8.72727ZM9.38856 12.3636V14.5455H11.9163V12.3636H9.38856ZM7.94412 12.3636H5.41634V14.5455H7.94412V12.3636ZM7.94412 10.9091V8.72727H5.41634V10.9091H7.94412ZM3.9719 8.72727H1.44412V10.9091H3.9719V8.72727ZM15.8886 13.8182V12.3636H13.3608V14.5455H15.1663C15.5643 14.5455 15.8886 14.2189 15.8886 13.8182ZM2.16634 14.5455H3.9719V12.3636H1.44412V13.8182C1.44412 14.2189 1.7684 14.5455 2.16634 14.5455Z"/>
</mask>
<path d="M11.9163 5.09091V-16.2424H33.2497V5.09091H11.9163ZM9.38856 5.09091H-11.9448V-16.2424H9.38856V5.09091ZM9.38856 7.27273V28.6061H-11.9448V7.27273H9.38856ZM11.9163 7.27273H33.2497V28.6061H11.9163V7.27273ZM13.3608 7.27273V28.6061H-7.97255V7.27273H13.3608ZM15.8886 7.27273H37.2219V28.6061H15.8886V7.27273ZM15.8886 5.09091V-16.2424H37.2219V5.09091H15.8886ZM13.3608 5.09091H-7.97255V-16.2424H13.3608V5.09091ZM7.94412 5.09091V-16.2424H29.2775V5.09091H7.94412ZM5.41634 5.09091H-15.917V-16.2424H5.41634V5.09091ZM5.41634 7.27273V28.6061H-15.917V7.27273H5.41634ZM7.94412 7.27273H29.2775V28.6061H7.94412V7.27273ZM3.9719 5.09091V-16.2424H25.3052V5.09091H3.9719ZM1.44412 5.09091H-19.8892V-16.2424H1.44412V5.09091ZM1.44412 7.27273V28.6061H-19.8892V7.27273H1.44412ZM3.9719 7.27273H25.3052V28.6061H3.9719V7.27273ZM15.8886 8.72727V-12.6061H37.2219V8.72727H15.8886ZM13.3608 8.72727H-7.97255V-12.6061H13.3608V8.72727ZM13.3608 10.9091V32.2424H-7.97255V10.9091H13.3608ZM15.8886 10.9091H37.2219V32.2424H15.8886V10.9091ZM11.9163 8.72727V-12.6061H33.2497V8.72727H11.9163ZM9.38856 8.72727H-11.9448V-12.6061H9.38856V8.72727ZM9.38856 10.9091V32.2424H-11.9448V10.9091H9.38856ZM11.9163 10.9091H33.2497V32.2424H11.9163V10.9091ZM9.38856 12.3636H-11.9448V-8.9697H9.38856V12.3636ZM9.38856 14.5455V35.8788H-11.9448V14.5455H9.38856ZM11.9163 14.5455H33.2497V35.8788H11.9163V14.5455ZM11.9163 12.3636V-8.9697H33.2497V12.3636H11.9163ZM7.94412 12.3636V-8.9697H29.2775V12.3636H7.94412ZM5.41634 12.3636H-15.917V-8.9697H5.41634V12.3636ZM5.41634 14.5455V35.8788H-15.917V14.5455H5.41634ZM7.94412 14.5455H29.2775V35.8788H7.94412V14.5455ZM7.94412 10.9091H29.2775V32.2424H7.94412V10.9091ZM7.94412 8.72727V-12.6061H29.2775V8.72727H7.94412ZM5.41634 8.72727H-15.917V-12.6061H5.41634V8.72727ZM5.41634 10.9091V32.2424H-15.917V10.9091H5.41634ZM3.9719 8.72727V-12.6061H25.3052V8.72727H3.9719ZM1.44412 8.72727H-19.8892V-12.6061H1.44412V8.72727ZM1.44412 10.9091V32.2424H-19.8892V10.9091H1.44412ZM3.9719 10.9091H25.3052V32.2424H3.9719V10.9091ZM15.8886 12.3636V-8.9697H37.2219V12.3636H15.8886ZM13.3608 12.3636H-7.97255V-8.9697H13.3608V12.3636ZM13.3608 14.5455V35.8788H-7.97255V14.5455H13.3608ZM3.9719 14.5455H25.3052V35.8788H3.9719V14.5455ZM3.9719 12.3636V-8.9697H25.3052V12.3636H3.9719ZM1.44412 12.3636H-19.8892V-8.9697H1.44412V12.3636ZM2.16634 -21.3333H15.1663V21.3333H2.16634V-21.3333ZM15.1663 -21.3333C28.2829 -21.3333 38.6663 -10.6628 38.6663 2.18182H-4.00033C-4.00033 12.6206 4.43891 21.3333 15.1663 21.3333V-21.3333ZM38.6663 2.18182V13.8182H-4.00033V2.18182H38.6663ZM38.6663 13.8182C38.6663 26.6628 28.2829 37.3333 15.1663 37.3333V-5.33333C4.43891 -5.33333 -4.00033 3.37942 -4.00033 13.8182H38.6663ZM15.1663 37.3333H2.16634V-5.33333H15.1663V37.3333ZM2.16634 37.3333C-10.9502 37.3333 -21.3337 26.6628 -21.3337 13.8182H21.333C21.333 3.37942 12.8938 -5.33333 2.16634 -5.33333V37.3333ZM-21.3337 13.8182V2.18182H21.333V13.8182H-21.3337ZM-21.3337 2.18182C-21.3337 -10.6628 -10.9502 -21.3333 2.16634 -21.3333V21.3333C12.8938 21.3333 21.333 12.6206 21.333 2.18182H-21.3337ZM11.9163 26.4242H9.38856V-16.2424H11.9163V26.4242ZM30.7219 5.09091V7.27273H-11.9448V5.09091H30.7219ZM9.38856 -14.0606H11.9163V28.6061H9.38856V-14.0606ZM-9.41699 7.27273V5.09091H33.2497V7.27273H-9.41699ZM13.3608 -14.0606H15.8886V28.6061H13.3608V-14.0606ZM-5.44477 7.27273V5.09091H37.2219V7.27273H-5.44477ZM15.8886 26.4242H13.3608V-16.2424H15.8886V26.4242ZM34.6941 5.09091V7.27273H-7.97255V5.09091H34.6941ZM7.94412 26.4242H5.41634V-16.2424H7.94412V26.4242ZM26.7497 5.09091V7.27273H-15.917V5.09091H26.7497ZM5.41634 -14.0606H7.94412V28.6061H5.41634V-14.0606ZM-13.3892 7.27273V5.09091H29.2775V7.27273H-13.3892ZM3.9719 26.4242H1.44412V-16.2424H3.9719V26.4242ZM22.7775 5.09091V7.27273H-19.8892V5.09091H22.7775ZM1.44412 -14.0606H3.9719V28.6061H1.44412V-14.0606ZM-17.3614 7.27273V5.09091H25.3052V7.27273H-17.3614ZM15.8886 30.0606H13.3608V-12.6061H15.8886V30.0606ZM34.6941 8.72727V10.9091H-7.97255V8.72727H34.6941ZM13.3608 -10.4242H15.8886V32.2424H13.3608V-10.4242ZM-5.44477 10.9091V8.72727H37.2219V10.9091H-5.44477ZM11.9163 30.0606H9.38856V-12.6061H11.9163V30.0606ZM30.7219 8.72727V10.9091H-11.9448V8.72727H30.7219ZM9.38856 -10.4242H11.9163V32.2424H9.38856V-10.4242ZM-9.41699 10.9091V8.72727H33.2497V10.9091H-9.41699ZM30.7219 12.3636V14.5455H-11.9448V12.3636H30.7219ZM9.38856 -6.78788H11.9163V35.8788H9.38856V-6.78788ZM-9.41699 14.5455V12.3636H33.2497V14.5455H-9.41699ZM11.9163 33.697H9.38856V-8.9697H11.9163V33.697ZM7.94412 33.697H5.41634V-8.9697H7.94412V33.697ZM26.7497 12.3636V14.5455H-15.917V12.3636H26.7497ZM5.41634 -6.78788H7.94412V35.8788H5.41634V-6.78788ZM-13.3892 14.5455V12.3636H29.2775V14.5455H-13.3892ZM-13.3892 10.9091V8.72727H29.2775V10.9091H-13.3892ZM7.94412 30.0606H5.41634V-12.6061H7.94412V30.0606ZM26.7497 8.72727V10.9091H-15.917V8.72727H26.7497ZM5.41634 -10.4242H7.94412V32.2424H5.41634V-10.4242ZM3.9719 30.0606H1.44412V-12.6061H3.9719V30.0606ZM22.7775 8.72727V10.9091H-19.8892V8.72727H22.7775ZM1.44412 -10.4242H3.9719V32.2424H1.44412V-10.4242ZM-17.3614 10.9091V8.72727H25.3052V10.9091H-17.3614ZM-5.44477 13.8182V12.3636H37.2219V13.8182H-5.44477ZM15.8886 33.697H13.3608V-8.9697H15.8886V33.697ZM34.6941 12.3636V14.5455H-7.97255V12.3636H34.6941ZM13.3608 -6.78788H15.1663V35.8788H13.3608V-6.78788ZM15.1663 -6.78788C3.64229 -6.78788 -5.44477 2.57724 -5.44477 13.8182H37.2219C37.2219 25.8606 27.4863 35.8788 15.1663 35.8788V-6.78788ZM2.16634 -6.78788H3.9719V35.8788H2.16634V-6.78788ZM-17.3614 14.5455V12.3636H25.3052V14.5455H-17.3614ZM3.9719 33.697H1.44412V-8.9697H3.9719V33.697ZM22.7775 12.3636V13.8182H-19.8892V12.3636H22.7775ZM22.7775 13.8182C22.7775 2.57724 13.6904 -6.78788 2.16634 -6.78788V35.8788C-10.1536 35.8788 -19.8892 25.8606 -19.8892 13.8182H22.7775Z" fill="white" mask="url(#path-1-inside-1)"/>
</svg>
